<?xml version="1.0" standalone="no"?>
<!DOCTYPE svg PUBLIC "-//W3C//DTD SVG 20010904//EN"
 "http://www.w3.org/TR/2001/REC-SVG-20010904/DTD/svg10.dtd">
<svg version="1.0" xmlns="http://www.w3.org/2000/svg"
 width="500.000000pt" height="500.000000pt" viewBox="0 0 500.000000 500.000000"
 preserveAspectRatio="xMidYMid meet">
<metadata>
Created by potrace 1.11, written by Peter Selinger 2001-2013
</metadata>
<g transform="translate(0.000000,500.000000) scale(0.100000,-0.100000)"
fill="#000000" stroke="none">
<path d="M3550 4643 c0 -25 -83 -206 -127 -278 -86 -140 -275 -356 -388 -443
-76 -58 -179 -130 -231 -162 -31 -19 -72 -45 -91 -57 -19 -13 -36 -23 -38 -23
-2 0 -28 -14 -57 -31 -29 -17 -145 -78 -257 -136 -113 -57 -239 -128 -280
-156 -170 -116 -461 -459 -552 -650 l-27 -58 -1 113 c-2 150 -9 262 -27 403
-18 143 -66 326 -114 431 -94 207 -279 367 -509 440 -91 29 -95 30 -77 2 68
-105 144 -410 162 -649 13 -166 6 -548 -10 -636 -2 -10 -7 -52 -10 -93 -4 -41
-9 -91 -11 -110 -3 -19 -7 -62 -10 -95 -2 -33 -7 -89 -11 -124 -7 -69 -9 -91
-21 -261 -10 -144 -11 -523 0 -610 9 -82 14 -110 34 -185 8 -33 16 -67 18 -76
5 -23 52 -134 76 -176 98 -174 244 -284 450 -338 55 -15 199 -31 199 -23 0 2
-18 53 -41 113 -22 60 -42 116 -44 124 -2 9 -13 52 -24 96 -11 44 -23 96 -26
115 -2 19 -9 62 -14 95 -9 65 -7 338 4 395 49 261 144 441 332 635 212 219
386 346 828 605 221 130 360 219 435 278 273 219 469 615 515 1042 7 68 7 250
0 299 -14 89 -40 201 -47 201 -5 0 -8 -8 -8 -17z"/>
<path d="M2189 2256 c-2 -2 -17 -7 -34 -10 -65 -11 -94 -24 -185 -79 l-35 -22
53 -7 c68 -10 99 -26 153 -82 58 -59 104 -142 174 -318 64 -160 123 -277 192
-381 53 -80 182 -215 263 -274 274 -202 711 -303 1005 -233 70 17 212 86 265
129 106 86 195 199 260 329 38 77 97 252 105 312 l7 45 -24 -45 c-52 -100
-191 -212 -318 -255 -157 -54 -387 -29 -586 64 -157 74 -246 145 -519 417
-315 313 -459 401 -671 410 -55 2 -103 2 -105 0z"/>
</g>
</svg>
